<svg width="40" height="40" viewBox="0 0 40 40" fill="none" xmlns="http://www.w3.org/2000/svg">
<circle cx="20" cy="20" r="20" transform="rotate(-180 20 20)" fill="#495E57"/>
<path d="M21.88 22.54C21.48 22.96 21.32 23.34 21.32 23.64C21.32 24.26 21.9 24.64 22.5 24.64C22.84 24.64 23.18 24.52 23.46 24.22L26.44 21.2C26.84 20.8 27.04 20.26 27.04 19.76C27.04 19.24 26.84 18.74 26.46 18.34L23.5 15.36C23.22 15.08 22.86 14.96 22.54 14.96C21.94 14.96 21.36 15.34 21.36 15.94C21.36 16.26 21.5 16.64 21.9 17.06L23.3 18.48L12.98 18.48C12.32 18.48 11.78 19.02 11.78 19.72C11.78 20.38 12.32 20.92 12.98 20.92L23.46 20.92L21.88 22.54Z" fill="#F4CE14"/>
</svg>
