<svg width="28" height="32" viewBox="0 0 28 32" fill="none" xmlns="http://www.w3.org/2000/svg">
<g clip-path="url(#clip0_28_558)">
<path fill-rule="evenodd" clip-rule="evenodd" d="M1.07692 0C0.48216 0 0 0.795946 0 1.77778C0 2.7596 0.48216 3.55556 1.07692 3.55556H26.923C27.5178 3.55556 28 2.7596 28 1.77778C28 0.795946 27.5178 0 26.923 0H1.07692ZM0 16C0 15.0181 0.48216 14.2222 1.07692 14.2222H26.923C27.5178 14.2222 28 15.0181 28 16C28 16.9819 27.5178 17.7778 26.923 17.7778H1.07692C0.48216 17.7778 0 16.9819 0 16ZM0 30.2222C0 29.2406 0.48216 28.4444 1.07692 28.4444H26.923C27.5178 28.4444 28 29.2406 28 30.2222C28 31.204 27.5178 32 26.923 32H1.07692C0.48216 32 0 31.204 0 30.2222Z" fill="white"/>
</g>
<defs>
<clipPath id="clip0_28_558">
<rect width="28" height="32" fill="white"/>
</clipPath>
</defs>
</svg>
