<svg width="43" height="33" viewBox="0 0 43 33" fill="none" xmlns="http://www.w3.org/2000/svg">
<path d="M20.9299 8.56106L7.16724 19.7478V31.8213C7.16724 32.1339 7.29307 32.4337 7.51706 32.6547C7.74103 32.8758 8.04483 33 8.36159 33L16.7266 32.9786C17.0422 32.977 17.3444 32.8522 17.5673 32.6313C17.7899 32.4104 17.9149 32.1116 17.9149 31.8V24.7491C17.9149 24.4365 18.0408 24.1367 18.2647 23.9155C18.4886 23.6945 18.7925 23.5704 19.1092 23.5704H23.8867C24.2035 23.5704 24.5072 23.6945 24.7313 23.9155C24.9552 24.1367 25.081 24.4365 25.081 24.7491V31.7947C25.0806 31.9499 25.111 32.1036 25.1709 32.247C25.2307 32.3903 25.3185 32.5208 25.4295 32.6307C25.5405 32.7405 25.6723 32.8276 25.8175 32.8871C25.9626 32.9466 26.1183 32.9772 26.2753 32.9772L34.6374 33C34.9541 33 35.258 32.8758 35.4819 32.6547C35.7058 32.4337 35.8317 32.1339 35.8317 31.8213V19.7396L22.072 8.56106C21.9103 8.43238 21.7087 8.36222 21.5009 8.36222C21.2932 8.36222 21.0917 8.43238 20.9299 8.56106ZM42.6694 16.1644L36.4289 11.0879V0.884026C36.4289 0.649568 36.3345 0.424713 36.1664 0.258924C35.9986 0.0931378 35.7706 0 35.5331 0H31.3528C31.1154 0 30.8874 0.0931378 30.7195 0.258924C30.5515 0.424713 30.4571 0.649568 30.4571 0.884026V6.23313L23.774 0.806674C23.1326 0.285819 22.3279 0.00103978 21.4972 0.00103978C20.6667 0.00103978 19.8618 0.285819 19.2206 0.806674L0.325083 16.1644C0.234379 16.2384 0.159334 16.3293 0.104235 16.432C0.049152 16.5346 0.015079 16.6468 0.00398824 16.7624C-0.00710409 16.8781 0.00499682 16.9948 0.0395997 17.1058C0.0742043 17.2168 0.130624 17.32 0.205653 17.4094L2.10915 19.6932C2.18397 19.783 2.276 19.8573 2.37998 19.912C2.48394 19.9665 2.59781 20.0005 2.71505 20.0117C2.8323 20.0227 2.95062 20.011 3.06325 19.9769C3.17588 19.9429 3.28061 19.8873 3.37144 19.8133L20.9299 5.54064C21.0917 5.41196 21.2932 5.34178 21.5009 5.34178C21.7087 5.34178 21.9103 5.41196 22.072 5.54064L39.6313 19.8133C39.722 19.8873 39.8265 19.9429 39.939 19.9771C40.0514 20.0114 40.1695 20.0232 40.2868 20.0123C40.4039 20.0013 40.5177 19.9677 40.6217 19.9133C40.7257 19.8589 40.8178 19.7849 40.8927 19.6954L42.7962 17.4117C42.8711 17.3217 42.9274 17.2179 42.9615 17.1064C42.9958 16.995 43.0073 16.8779 42.9955 16.762C42.9838 16.646 42.9488 16.5336 42.8929 16.4311C42.8368 16.3285 42.7609 16.2379 42.6694 16.1644Z" fill="#495E57"/>
</svg>
